<?xml version="1.0" encoding="utf-8" standalone="no"?>
<!DOCTYPE svg PUBLIC "-//W3C//DTD SVG 1.1//EN"
  "http://www.w3.org/Graphics/SVG/1.1/DTD/svg11.dtd">
<svg xmlns:xlink="http://www.w3.org/1999/xlink" width="864pt" height="432pt" viewBox="0 0 864 432" xmlns="http://www.w3.org/2000/svg" version="1.1">
 <metadata>
  <rdf:RDF xmlns:dc="http://purl.org/dc/elements/1.1/" xmlns:cc="http://creativecommons.org/ns#" xmlns:rdf="http://www.w3.org/1999/02/22-rdf-syntax-ns#">
   <cc:Work>
    <dc:type rdf:resource="http://purl.org/dc/dcmitype/StillImage"/>
    <dc:date>2025-04-28T14:47:00.056408</dc:date>
    <dc:format>image/svg+xml</dc:format>
    <dc:creator>
     <cc:Agent>
      <dc:title>Matplotlib v3.7.2, https://matplotlib.org/</dc:title>
     </cc:Agent>
    </dc:creator>
   </cc:Work>
  </rdf:RDF>
 </metadata>
 <defs>
  <style type="text/css">*{stroke-linejoin: round; stroke-linecap: butt}</style>
 </defs>
 <g id="figure_1">
  <g id="patch_1">
   <path d="M 0 432 
L 864 432 
L 864 0 
L 0 0 
z
" style="fill: #ffffff"/>
  </g>
  <g id="axes_1">
   <g id="patch_2">
    <path d="M 52.56 383.94 
L 425.52 383.94 
L 425.52 29.76 
L 52.56 29.76 
z
" style="fill: #eaeaf2"/>
   </g>
   <g id="matplotlib.axis_1">
    <g id="xtick_1">
     <g id="line2d_1">
      <path d="M 111.461889 383.94 
L 111.461889 29.76 
" clip-path="url(#pb8318a4592)" style="fill: none; stroke: #ffffff; stroke-linecap: round"/>
     </g>
     <g id="text_1">
      <!-- −1 -->
      <g style="fill: #262626" transform="translate(105.191029 401.313594) scale(0.11 -0.11)">
       <defs>
        <path id="ArialMT-2212" d="M 3381 1997 
L 356 1997 
L 356 2522 
L 3381 2522 
L 3381 1997 
z
" transform="scale(0.015625)"/>
        <path id="ArialMT-31" d="M 2384 0 
L 1822 0 
L 1822 3584 
Q 1619 3391 1289 3197 
Q 959 3003 697 2906 
L 697 3450 
Q 1169 3672 1522 3987 
Q 1875 4303 2022 4600 
L 2384 4600 
L 2384 0 
z
" transform="scale(0.015625)"/>
       </defs>
       <use xlink:href="#ArialMT-2212"/>
       <use xlink:href="#ArialMT-31" x="58.398438"/>
      </g>
     </g>
    </g>
    <g id="xtick_2">
     <g id="line2d_2">
      <path d="M 170.741736 383.94 
L 170.741736 29.76 
" clip-path="url(#pb8318a4592)" style="fill: none; stroke: #ffffff; stroke-linecap: round"/>
     </g>
     <g id="text_2">
      <!-- 0 -->
      <g style="fill: #262626" transform="translate(167.68322 401.313594) scale(0.11 -0.11)">
       <defs>
        <path id="ArialMT-30" d="M 266 2259 
Q 266 3072 433 3567 
Q 600 4063 929 4331 
Q 1259 4600 1759 4600 
Q 2128 4600 2406 4451 
Q 2684 4303 2865 4023 
Q 3047 3744 3150 3342 
Q 3253 2941 3253 2259 
Q 3253 1453 3087 958 
Q 2922 463 2592 192 
Q 2263 -78 1759 -78 
Q 1097 -78 719 397 
Q 266 969 266 2259 
z
M 844 2259 
Q 844 1131 1108 757 
Q 1372 384 1759 384 
Q 2147 384 2411 759 
Q 2675 1134 2675 2259 
Q 2675 3391 2411 3762 
Q 2147 4134 1753 4134 
Q 1366 4134 1134 3806 
Q 844 3388 844 2259 
z
" transform="scale(0.015625)"/>
       </defs>
       <use xlink:href="#ArialMT-30"/>
      </g>
     </g>
    </g>
    <g id="xtick_3">
     <g id="line2d_3">
      <path d="M 230.021583 383.94 
L 230.021583 29.76 
" clip-path="url(#pb8318a4592)" style="fill: none; stroke: #ffffff; stroke-linecap: round"/>
     </g>
     <g id="text_3">
      <!-- 1 -->
      <g style="fill: #262626" transform="translate(226.963067 401.313594) scale(0.11 -0.11)">
       <use xlink:href="#ArialMT-31"/>
      </g>
     </g>
    </g>
    <g id="xtick_4">
     <g id="line2d_4">
      <path d="M 289.30143 383.94 
L 289.30143 29.76 
" clip-path="url(#pb8318a4592)" style="fill: none; stroke: #ffffff; stroke-linecap: round"/>
     </g>
     <g id="text_4">
      <!-- 2 -->
      <g style="fill: #262626" transform="translate(286.242914 401.313594) scale(0.11 -0.11)">
       <defs>
        <path id="ArialMT-32" d="M 3222 541 
L 3222 0 
L 194 0 
Q 188 203 259 391 
Q 375 700 629 1000 
Q 884 1300 1366 1694 
Q 2113 2306 2375 2664 
Q 2638 3022 2638 3341 
Q 2638 3675 2398 3904 
Q 2159 4134 1775 4134 
Q 1369 4134 1125 3890 
Q 881 3647 878 3216 
L 300 3275 
Q 359 3922 746 4261 
Q 1134 4600 1788 4600 
Q 2447 4600 2831 4234 
Q 3216 3869 3216 3328 
Q 3216 3053 3103 2787 
Q 2991 2522 2730 2228 
Q 2469 1934 1863 1422 
Q 1356 997 1212 845 
Q 1069 694 975 541 
L 3222 541 
z
" transform="scale(0.015625)"/>
       </defs>
       <use xlink:href="#ArialMT-32"/>
      </g>
     </g>
    </g>
    <g id="xtick_5">
     <g id="line2d_5">
      <path d="M 348.581277 383.94 
L 348.581277 29.76 
" clip-path="url(#pb8318a4592)" style="fill: none; stroke: #ffffff; stroke-linecap: round"/>
     </g>
     <g id="text_5">
      <!-- 3 -->
      <g style="fill: #262626" transform="translate(345.522762 401.313594) scale(0.11 -0.11)">
       <defs>
        <path id="ArialMT-33" d="M 269 1209 
L 831 1284 
Q 928 806 1161 595 
Q 1394 384 1728 384 
Q 2125 384 2398 659 
Q 2672 934 2672 1341 
Q 2672 1728 2419 1979 
Q 2166 2231 1775 2231 
Q 1616 2231 1378 2169 
L 1441 2663 
Q 1497 2656 1531 2656 
Q 1891 2656 2178 2843 
Q 2466 3031 2466 3422 
Q 2466 3731 2256 3934 
Q 2047 4138 1716 4138 
Q 1388 4138 1169 3931 
Q 950 3725 888 3313 
L 325 3413 
Q 428 3978 793 4289 
Q 1159 4600 1703 4600 
Q 2078 4600 2393 4439 
Q 2709 4278 2876 4000 
Q 3044 3722 3044 3409 
Q 3044 3113 2884 2869 
Q 2725 2625 2413 2481 
Q 2819 2388 3044 2092 
Q 3269 1797 3269 1353 
Q 3269 753 2831 336 
Q 2394 -81 1725 -81 
Q 1122 -81 723 278 
Q 325 638 269 1209 
z
" transform="scale(0.015625)"/>
       </defs>
       <use xlink:href="#ArialMT-33"/>
      </g>
     </g>
    </g>
    <g id="xtick_6">
     <g id="line2d_6">
      <path d="M 407.861124 383.94 
L 407.861124 29.76 
" clip-path="url(#pb8318a4592)" style="fill: none; stroke: #ffffff; stroke-linecap: round"/>
     </g>
     <g id="text_6">
      <!-- 4 -->
      <g style="fill: #262626" transform="translate(404.802609 401.313594) scale(0.11 -0.11)">
       <defs>
        <path id="ArialMT-34" d="M 2069 0 
L 2069 1097 
L 81 1097 
L 81 1613 
L 2172 4581 
L 2631 4581 
L 2631 1613 
L 3250 1613 
L 3250 1097 
L 2631 1097 
L 2631 0 
L 2069 0 
z
M 2069 1613 
L 2069 3678 
L 634 1613 
L 2069 1613 
z
" transform="scale(0.015625)"/>
       </defs>
       <use xlink:href="#ArialMT-34"/>
      </g>
     </g>
    </g>
    <g id="text_7">
     <!-- Valores de $X$ -->
     <g style="fill: #262626" transform="translate(204.54 416.089219) scale(0.12 -0.12)">
      <defs>
       <path id="ArialMT-56" d="M 1803 0 
L 28 4581 
L 684 4581 
L 1875 1253 
Q 2019 853 2116 503 
Q 2222 878 2363 1253 
L 3600 4581 
L 4219 4581 
L 2425 0 
L 1803 0 
z
" transform="scale(0.015625)"/>
       <path id="ArialMT-61" d="M 2588 409 
Q 2275 144 1986 34 
Q 1697 -75 1366 -75 
Q 819 -75 525 192 
Q 231 459 231 875 
Q 231 1119 342 1320 
Q 453 1522 633 1644 
Q 813 1766 1038 1828 
Q 1203 1872 1538 1913 
Q 2219 1994 2541 2106 
Q 2544 2222 2544 2253 
Q 2544 2597 2384 2738 
Q 2169 2928 1744 2928 
Q 1347 2928 1158 2789 
Q 969 2650 878 2297 
L 328 2372 
Q 403 2725 575 2942 
Q 747 3159 1072 3276 
Q 1397 3394 1825 3394 
Q 2250 3394 2515 3294 
Q 2781 3194 2906 3042 
Q 3031 2891 3081 2659 
Q 3109 2516 3109 2141 
L 3109 1391 
Q 3109 606 3145 398 
Q 3181 191 3288 0 
L 2700 0 
Q 2613 175 2588 409 
z
M 2541 1666 
Q 2234 1541 1622 1453 
Q 1275 1403 1131 1340 
Q 988 1278 909 1158 
Q 831 1038 831 891 
Q 831 666 1001 516 
Q 1172 366 1500 366 
Q 1825 366 2078 508 
Q 2331 650 2450 897 
Q 2541 1088 2541 1459 
L 2541 1666 
z
" transform="scale(0.015625)"/>
       <path id="ArialMT-6c" d="M 409 0 
L 409 4581 
L 972 4581 
L 972 0 
L 409 0 
z
" transform="scale(0.015625)"/>
       <path id="ArialMT-6f" d="M 213 1659 
Q 213 2581 725 3025 
Q 1153 3394 1769 3394 
Q 2453 3394 2887 2945 
Q 3322 2497 3322 1706 
Q 3322 1066 3130 698 
Q 2938 331 2570 128 
Q 2203 -75 1769 -75 
Q 1072 -75 642 372 
Q 213 819 213 1659 
z
M 791 1659 
Q 791 1022 1069 705 
Q 1347 388 1769 388 
Q 2188 388 2466 706 
Q 2744 1025 2744 1678 
Q 2744 2294 2464 2611 
Q 2184 2928 1769 2928 
Q 1347 2928 1069 2612 
Q 791 2297 791 1659 
z
" transform="scale(0.015625)"/>
       <path id="ArialMT-72" d="M 416 0 
L 416 3319 
L 922 3319 
L 922 2816 
Q 1116 3169 1280 3281 
Q 1444 3394 1641 3394 
Q 1925 3394 2219 3213 
L 2025 2691 
Q 1819 2813 1613 2813 
Q 1428 2813 1281 2702 
Q 1134 2591 1072 2394 
Q 978 2094 978 1738 
L 978 0 
L 416 0 
z
" transform="scale(0.015625)"/>
       <path id="ArialMT-65" d="M 2694 1069 
L 3275 997 
Q 3138 488 2766 206 
Q 2394 -75 1816 -75 
Q 1088 -75 661 373 
Q 234 822 234 1631 
Q 234 2469 665 2931 
Q 1097 3394 1784 3394 
Q 2450 3394 2872 2941 
Q 3294 2488 3294 1666 
Q 3294 1616 3291 1516 
L 816 1516 
Q 847 969 1125 678 
Q 1403 388 1819 388 
Q 2128 388 2347 550 
Q 2566 713 2694 1069 
z
M 847 1978 
L 2700 1978 
Q 2663 2397 2488 2606 
Q 2219 2931 1791 2931 
Q 1403 2931 1139 2672 
Q 875 2413 847 1978 
z
" transform="scale(0.015625)"/>
       <path id="ArialMT-73" d="M 197 991 
L 753 1078 
Q 800 744 1014 566 
Q 1228 388 1613 388 
Q 2000 388 2187 545 
Q 2375 703 2375 916 
Q 2375 1106 2209 1216 
Q 2094 1291 1634 1406 
Q 1016 1563 777 1677 
Q 538 1791 414 1992 
Q 291 2194 291 2438 
Q 291 2659 392 2848 
Q 494 3038 669 3163 
Q 800 3259 1026 3326 
Q 1253 3394 1513 3394 
Q 1903 3394 2198 3281 
Q 2494 3169 2634 2976 
Q 2775 2784 2828 2463 
L 2278 2388 
Q 2241 2644 2061 2787 
Q 1881 2931 1553 2931 
Q 1166 2931 1000 2803 
Q 834 2675 834 2503 
Q 834 2394 903 2306 
Q 972 2216 1119 2156 
Q 1203 2125 1616 2013 
Q 2213 1853 2448 1751 
Q 2684 1650 2818 1456 
Q 2953 1263 2953 975 
Q 2953 694 2789 445 
Q 2625 197 2315 61 
Q 2006 -75 1616 -75 
Q 969 -75 630 194 
Q 291 463 197 991 
z
" transform="scale(0.015625)"/>
       <path id="ArialMT-20" transform="scale(0.015625)"/>
       <path id="ArialMT-64" d="M 2575 0 
L 2575 419 
Q 2259 -75 1647 -75 
Q 1250 -75 917 144 
Q 584 363 401 755 
Q 219 1147 219 1656 
Q 219 2153 384 2558 
Q 550 2963 881 3178 
Q 1213 3394 1622 3394 
Q 1922 3394 2156 3267 
Q 2391 3141 2538 2938 
L 2538 4581 
L 3097 4581 
L 3097 0 
L 2575 0 
z
M 797 1656 
Q 797 1019 1065 703 
Q 1334 388 1700 388 
Q 2069 388 2326 689 
Q 2584 991 2584 1609 
Q 2584 2291 2321 2609 
Q 2059 2928 1675 2928 
Q 1300 2928 1048 2622 
Q 797 2316 797 1656 
z
" transform="scale(0.015625)"/>
       <path id="DejaVuSans-Oblique-58" d="M 878 4666 
L 1516 4666 
L 2316 2981 
L 3763 4666 
L 4500 4666 
L 2578 2438 
L 3738 0 
L 3103 0 
L 2163 1966 
L 459 0 
L -275 0 
L 1906 2509 
L 878 4666 
z
" transform="scale(0.015625)"/>
      </defs>
      <use xlink:href="#ArialMT-56" transform="translate(0 0.09375)"/>
      <use xlink:href="#ArialMT-61" transform="translate(66.699219 0.09375)"/>
      <use xlink:href="#ArialMT-6c" transform="translate(122.314453 0.09375)"/>
      <use xlink:href="#ArialMT-6f" transform="translate(144.53125 0.09375)"/>
      <use xlink:href="#ArialMT-72" transform="translate(200.146484 0.09375)"/>
      <use xlink:href="#ArialMT-65" transform="translate(233.447266 0.09375)"/>
      <use xlink:href="#ArialMT-73" transform="translate(289.0625 0.09375)"/>
      <use xlink:href="#ArialMT-20" transform="translate(339.0625 0.09375)"/>
      <use xlink:href="#ArialMT-64" transform="translate(366.845703 0.09375)"/>
      <use xlink:href="#ArialMT-65" transform="translate(422.460938 0.09375)"/>
      <use xlink:href="#ArialMT-20" transform="translate(478.076172 0.09375)"/>
      <use xlink:href="#DejaVuSans-Oblique-58" transform="translate(505.859375 0.09375)"/>
     </g>
    </g>
   </g>
   <g id="matplotlib.axis_2">
    <g id="ytick_1">
     <g id="line2d_7">
      <path d="M 52.56 383.94 
L 425.52 383.94 
" clip-path="url(#pb8318a4592)" style="fill: none; stroke: #ffffff; stroke-linecap: round"/>
     </g>
     <g id="text_8">
      <!-- 0.0 -->
      <g style="fill: #262626" transform="translate(27.77 387.876797) scale(0.11 -0.11)">
       <defs>
        <path id="ArialMT-2e" d="M 581 0 
L 581 641 
L 1222 641 
L 1222 0 
L 581 0 
z
" transform="scale(0.015625)"/>
       </defs>
       <use xlink:href="#ArialMT-30"/>
       <use xlink:href="#ArialMT-2e" x="55.615234"/>
       <use xlink:href="#ArialMT-30" x="83.398438"/>
      </g>
     </g>
    </g>
    <g id="ytick_2">
     <g id="line2d_8">
      <path d="M 52.56 306.458524 
L 425.52 306.458524 
" clip-path="url(#pb8318a4592)" style="fill: none; stroke: #ffffff; stroke-linecap: round"/>
     </g>
     <g id="text_9">
      <!-- 0.1 -->
      <g style="fill: #262626" transform="translate(27.77 310.395321) scale(0.11 -0.11)">
       <use xlink:href="#ArialMT-30"/>
       <use xlink:href="#ArialMT-2e" x="55.615234"/>
       <use xlink:href="#ArialMT-31" x="83.398438"/>
      </g>
     </g>
    </g>
    <g id="ytick_3">
     <g id="line2d_9">
      <path d="M 52.56 228.977049 
L 425.52 228.977049 
" clip-path="url(#pb8318a4592)" style="fill: none; stroke: #ffffff; stroke-linecap: round"/>
     </g>
     <g id="text_10">
      <!-- 0.2 -->
      <g style="fill: #262626" transform="translate(27.77 232.913846) scale(0.11 -0.11)">
       <use xlink:href="#ArialMT-30"/>
       <use xlink:href="#ArialMT-2e" x="55.615234"/>
       <use xlink:href="#ArialMT-32" x="83.398438"/>
      </g>
     </g>
    </g>
    <g id="ytick_4">
     <g id="line2d_10">
      <path d="M 52.56 151.495573 
L 425.52 151.495573 
" clip-path="url(#pb8318a4592)" style="fill: none; stroke: #ffffff; stroke-linecap: round"/>
     </g>
     <g id="text_11">
      <!-- 0.3 -->
      <g style="fill: #262626" transform="translate(27.77 155.43237) scale(0.11 -0.11)">
       <use xlink:href="#ArialMT-30"/>
       <use xlink:href="#ArialMT-2e" x="55.615234"/>
       <use xlink:href="#ArialMT-33" x="83.398438"/>
      </g>
     </g>
    </g>
    <g id="ytick_5">
     <g id="line2d_11">
      <path d="M 52.56 74.014098 
L 425.52 74.014098 
" clip-path="url(#pb8318a4592)" style="fill: none; stroke: #ffffff; stroke-linecap: round"/>
     </g>
     <g id="text_12">
      <!-- 0.4 -->
      <g style="fill: #262626" transform="translate(27.77 77.950894) scale(0.11 -0.11)">
       <use xlink:href="#ArialMT-30"/>
       <use xlink:href="#ArialMT-2e" x="55.615234"/>
       <use xlink:href="#ArialMT-34" x="83.398438"/>
      </g>
     </g>
    </g>
    <g id="text_13">
     <!-- Densidad -->
     <g style="fill: #262626" transform="translate(21.385 232.199063) rotate(-90) scale(0.12 -0.12)">
      <defs>
       <path id="ArialMT-44" d="M 494 0 
L 494 4581 
L 2072 4581 
Q 2606 4581 2888 4516 
Q 3281 4425 3559 4188 
Q 3922 3881 4101 3404 
Q 4281 2928 4281 2316 
Q 4281 1794 4159 1391 
Q 4038 988 3847 723 
Q 3656 459 3429 307 
Q 3203 156 2883 78 
Q 2563 0 2147 0 
L 494 0 
z
M 1100 541 
L 2078 541 
Q 2531 541 2789 625 
Q 3047 709 3200 863 
Q 3416 1078 3536 1442 
Q 3656 1806 3656 2325 
Q 3656 3044 3420 3430 
Q 3184 3816 2847 3947 
Q 2603 4041 2063 4041 
L 1100 4041 
L 1100 541 
z
" transform="scale(0.015625)"/>
       <path id="ArialMT-6e" d="M 422 0 
L 422 3319 
L 928 3319 
L 928 2847 
Q 1294 3394 1984 3394 
Q 2284 3394 2536 3286 
Q 2788 3178 2913 3003 
Q 3038 2828 3088 2588 
Q 3119 2431 3119 2041 
L 3119 0 
L 2556 0 
L 2556 2019 
Q 2556 2363 2490 2533 
Q 2425 2703 2258 2804 
Q 2091 2906 1866 2906 
Q 1506 2906 1245 2678 
Q 984 2450 984 1813 
L 984 0 
L 422 0 
z
" transform="scale(0.015625)"/>
       <path id="ArialMT-69" d="M 425 3934 
L 425 4581 
L 988 4581 
L 988 3934 
L 425 3934 
z
M 425 0 
L 425 3319 
L 988 3319 
L 988 0 
L 425 0 
z
" transform="scale(0.015625)"/>
      </defs>
      <use xlink:href="#ArialMT-44"/>
      <use xlink:href="#ArialMT-65" x="72.216797"/>
      <use xlink:href="#ArialMT-6e" x="127.832031"/>
      <use xlink:href="#ArialMT-73" x="183.447266"/>
      <use xlink:href="#ArialMT-69" x="233.447266"/>
      <use xlink:href="#ArialMT-64" x="255.664062"/>
      <use xlink:href="#ArialMT-61" x="311.279297"/>
      <use xlink:href="#ArialMT-64" x="366.894531"/>
     </g>
    </g>
   </g>
   <g id="patch_3">
    <path d="M 69.512727 383.94 
L 80.814545 383.94 
L 80.814545 371.747917 
L 69.512727 371.747917 
z
" clip-path="url(#pb8318a4592)" style="fill: #0000ff; opacity: 0.5; stroke: #ffffff; stroke-linejoin: miter"/>
   </g>
   <g id="patch_4">
    <path d="M 80.814545 383.94 
L 92.116364 383.94 
L 92.116364 375.811945 
L 80.814545 375.811945 
z
" clip-path="url(#pb8318a4592)" style="fill: #0000ff; opacity: 0.5; stroke: #ffffff; stroke-linejoin: miter"/>
   </g>
   <g id="patch_5">
    <path d="M 92.116364 383.94 
L 103.418182 383.94 
L 103.418182 351.42778 
L 92.116364 351.42778 
z
" clip-path="url(#pb8318a4592)" style="fill: #0000ff; opacity: 0.5; stroke: #ffffff; stroke-linejoin: miter"/>
   </g>
   <g id="patch_6">
    <path d="M 103.418182 383.94 
L 114.72 383.94 
L 114.72 339.235697 
L 103.418182 339.235697 
z
" clip-path="url(#pb8318a4592)" style="fill: #0000ff; opacity: 0.5; stroke: #ffffff; stroke-linejoin: miter"/>
   </g>
   <g id="patch_7">
    <path d="M 114.72 383.94 
L 126.021818 383.94 
L 126.021818 327.043614 
L 114.72 327.043614 
z
" clip-path="url(#pb8318a4592)" style="fill: #0000ff; opacity: 0.5; stroke: #ffffff; stroke-linejoin: miter"/>
   </g>
   <g id="patch_8">
    <path d="M 126.021818 383.94 
L 137.323636 383.94 
L 137.323636 339.235697 
L 126.021818 339.235697 
z
" clip-path="url(#pb8318a4592)" style="fill: #0000ff; opacity: 0.5; stroke: #ffffff; stroke-linejoin: miter"/>
   </g>
   <g id="patch_9">
    <path d="M 137.323636 383.94 
L 148.625455 383.94 
L 148.625455 298.595422 
L 137.323636 298.595422 
z
" clip-path="url(#pb8318a4592)" style="fill: #0000ff; opacity: 0.5; stroke: #ffffff; stroke-linejoin: miter"/>
   </g>
   <g id="patch_10">
    <path d="M 148.625455 383.94 
L 159.927273 383.94 
L 159.927273 253.891119 
L 148.625455 253.891119 
z
" clip-path="url(#pb8318a4592)" style="fill: #0000ff; opacity: 0.5; stroke: #ffffff; stroke-linejoin: miter"/>
   </g>
   <g id="patch_11">
    <path d="M 159.927273 383.94 
L 171.229091 383.94 
L 171.229091 221.378898 
L 159.927273 221.378898 
z
" clip-path="url(#pb8318a4592)" style="fill: #0000ff; opacity: 0.5; stroke: #ffffff; stroke-linejoin: miter"/>
   </g>
   <g id="patch_12">
    <path d="M 171.229091 383.94 
L 182.530909 383.94 
L 182.530909 172.610568 
L 171.229091 172.610568 
z
" clip-path="url(#pb8318a4592)" style="fill: #0000ff; opacity: 0.5; stroke: #ffffff; stroke-linejoin: miter"/>
   </g>
   <g id="patch_13">
    <path d="M 182.530909 383.94 
L 193.832727 383.94 
L 193.832727 107.586127 
L 182.530909 107.586127 
z
" clip-path="url(#pb8318a4592)" style="fill: #0000ff; opacity: 0.5; stroke: #ffffff; stroke-linejoin: miter"/>
   </g>
   <g id="patch_14">
    <path d="M 193.832727 383.94 
L 205.134545 383.94 
L 205.134545 168.54654 
L 193.832727 168.54654 
z
" clip-path="url(#pb8318a4592)" style="fill: #0000ff; opacity: 0.5; stroke: #ffffff; stroke-linejoin: miter"/>
   </g>
   <g id="patch_15">
    <path d="M 205.134545 383.94 
L 216.436364 383.94 
L 216.436364 71.00988 
L 205.134545 71.00988 
z
" clip-path="url(#pb8318a4592)" style="fill: #0000ff; opacity: 0.5; stroke: #ffffff; stroke-linejoin: miter"/>
   </g>
   <g id="patch_16">
    <path d="M 216.436364 383.94 
L 227.738182 383.94 
L 227.738182 83.201962 
L 216.436364 83.201962 
z
" clip-path="url(#pb8318a4592)" style="fill: #0000ff; opacity: 0.5; stroke: #ffffff; stroke-linejoin: miter"/>
   </g>
   <g id="patch_17">
    <path d="M 227.738182 383.94 
L 239.04 383.94 
L 239.04 62.881824 
L 227.738182 62.881824 
z
" clip-path="url(#pb8318a4592)" style="fill: #0000ff; opacity: 0.5; stroke: #ffffff; stroke-linejoin: miter"/>
   </g>
   <g id="patch_18">
    <path d="M 239.04 383.94 
L 250.341818 383.94 
L 250.341818 46.625714 
L 239.04 46.625714 
z
" clip-path="url(#pb8318a4592)" style="fill: #0000ff; opacity: 0.5; stroke: #ffffff; stroke-linejoin: miter"/>
   </g>
   <g id="patch_19">
    <path d="M 250.341818 383.94 
L 261.643636 383.94 
L 261.643636 111.650155 
L 250.341818 111.650155 
z
" clip-path="url(#pb8318a4592)" style="fill: #0000ff; opacity: 0.5; stroke: #ffffff; stroke-linejoin: miter"/>
   </g>
   <g id="patch_20">
    <path d="M 261.643636 383.94 
L 272.945455 383.94 
L 272.945455 99.458072 
L 261.643636 99.458072 
z
" clip-path="url(#pb8318a4592)" style="fill: #0000ff; opacity: 0.5; stroke: #ffffff; stroke-linejoin: miter"/>
   </g>
   <g id="patch_21">
    <path d="M 272.945455 383.94 
L 284.247273 383.94 
L 284.247273 168.54654 
L 272.945455 168.54654 
z
" clip-path="url(#pb8318a4592)" style="fill: #0000ff; opacity: 0.5; stroke: #ffffff; stroke-linejoin: miter"/>
   </g>
   <g id="patch_22">
    <path d="M 284.247273 383.94 
L 295.549091 383.94 
L 295.549091 164.482513 
L 284.247273 164.482513 
z
" clip-path="url(#pb8318a4592)" style="fill: #0000ff; opacity: 0.5; stroke: #ffffff; stroke-linejoin: miter"/>
   </g>
   <g id="patch_23">
    <path d="M 295.549091 383.94 
L 306.850909 383.94 
L 306.850909 205.122788 
L 295.549091 205.122788 
z
" clip-path="url(#pb8318a4592)" style="fill: #0000ff; opacity: 0.5; stroke: #ffffff; stroke-linejoin: miter"/>
   </g>
   <g id="patch_24">
    <path d="M 306.850909 383.94 
L 318.152727 383.94 
L 318.152727 274.211256 
L 306.850909 274.211256 
z
" clip-path="url(#pb8318a4592)" style="fill: #0000ff; opacity: 0.5; stroke: #ffffff; stroke-linejoin: miter"/>
   </g>
   <g id="patch_25">
    <path d="M 318.152727 383.94 
L 329.454545 383.94 
L 329.454545 290.467367 
L 318.152727 290.467367 
z
" clip-path="url(#pb8318a4592)" style="fill: #0000ff; opacity: 0.5; stroke: #ffffff; stroke-linejoin: miter"/>
   </g>
   <g id="patch_26">
    <path d="M 329.454545 383.94 
L 340.756364 383.94 
L 340.756364 351.42778 
L 329.454545 351.42778 
z
" clip-path="url(#pb8318a4592)" style="fill: #0000ff; opacity: 0.5; stroke: #ffffff; stroke-linejoin: miter"/>
   </g>
   <g id="patch_27">
    <path d="M 340.756364 383.94 
L 352.058182 383.94 
L 352.058182 355.491807 
L 340.756364 355.491807 
z
" clip-path="url(#pb8318a4592)" style="fill: #0000ff; opacity: 0.5; stroke: #ffffff; stroke-linejoin: miter"/>
   </g>
   <g id="patch_28">
    <path d="M 352.058182 383.94 
L 363.36 383.94 
L 363.36 335.17167 
L 352.058182 335.17167 
z
" clip-path="url(#pb8318a4592)" style="fill: #0000ff; opacity: 0.5; stroke: #ffffff; stroke-linejoin: miter"/>
   </g>
   <g id="patch_29">
    <path d="M 363.36 383.94 
L 374.661818 383.94 
L 374.661818 371.747917 
L 363.36 371.747917 
z
" clip-path="url(#pb8318a4592)" style="fill: #0000ff; opacity: 0.5; stroke: #ffffff; stroke-linejoin: miter"/>
   </g>
   <g id="patch_30">
    <path d="M 374.661818 383.94 
L 385.963636 383.94 
L 385.963636 379.875972 
L 374.661818 379.875972 
z
" clip-path="url(#pb8318a4592)" style="fill: #0000ff; opacity: 0.5; stroke: #ffffff; stroke-linejoin: miter"/>
   </g>
   <g id="patch_31">
    <path d="M 385.963636 383.94 
L 397.265455 383.94 
L 397.265455 383.94 
L 385.963636 383.94 
z
" clip-path="url(#pb8318a4592)" style="fill: #0000ff; opacity: 0.5; stroke: #ffffff; stroke-linejoin: miter"/>
   </g>
   <g id="patch_32">
    <path d="M 397.265455 383.94 
L 408.567273 383.94 
L 408.567273 371.747917 
L 397.265455 371.747917 
z
" clip-path="url(#pb8318a4592)" style="fill: #0000ff; opacity: 0.5; stroke: #ffffff; stroke-linejoin: miter"/>
   </g>
   <g id="patch_33">
    <path d="M 52.56 383.94 
L 52.56 29.76 
" style="fill: none; stroke: #ffffff; stroke-width: 1.25; stroke-linejoin: miter; stroke-linecap: square"/>
   </g>
   <g id="patch_34">
    <path d="M 425.52 383.94 
L 425.52 29.76 
" style="fill: none; stroke: #ffffff; stroke-width: 1.25; stroke-linejoin: miter; stroke-linecap: square"/>
   </g>
   <g id="patch_35">
    <path d="M 52.56 383.94 
L 425.52 383.94 
" style="fill: none; stroke: #ffffff; stroke-width: 1.25; stroke-linejoin: miter; stroke-linecap: square"/>
   </g>
   <g id="patch_36">
    <path d="M 52.56 29.76 
L 425.52 29.76 
" style="fill: none; stroke: #ffffff; stroke-width: 1.25; stroke-linejoin: miter; stroke-linecap: square"/>
   </g>
   <g id="text_14">
    <!-- Histograma de los datos de $X$ -->
    <g style="fill: #262626" transform="translate(160.2 23.76) scale(0.12 -0.12)">
     <defs>
      <path id="ArialMT-48" d="M 513 0 
L 513 4581 
L 1119 4581 
L 1119 2700 
L 3500 2700 
L 3500 4581 
L 4106 4581 
L 4106 0 
L 3500 0 
L 3500 2159 
L 1119 2159 
L 1119 0 
L 513 0 
z
" transform="scale(0.015625)"/>
      <path id="ArialMT-74" d="M 1650 503 
L 1731 6 
Q 1494 -44 1306 -44 
Q 1000 -44 831 53 
Q 663 150 594 308 
Q 525 466 525 972 
L 525 2881 
L 113 2881 
L 113 3319 
L 525 3319 
L 525 4141 
L 1084 4478 
L 1084 3319 
L 1650 3319 
L 1650 2881 
L 1084 2881 
L 1084 941 
Q 1084 700 1114 631 
Q 1144 563 1211 522 
Q 1278 481 1403 481 
Q 1497 481 1650 503 
z
" transform="scale(0.015625)"/>
      <path id="ArialMT-67" d="M 319 -275 
L 866 -356 
Q 900 -609 1056 -725 
Q 1266 -881 1628 -881 
Q 2019 -881 2231 -725 
Q 2444 -569 2519 -288 
Q 2563 -116 2559 434 
Q 2191 0 1641 0 
Q 956 0 581 494 
Q 206 988 206 1678 
Q 206 2153 378 2554 
Q 550 2956 876 3175 
Q 1203 3394 1644 3394 
Q 2231 3394 2613 2919 
L 2613 3319 
L 3131 3319 
L 3131 450 
Q 3131 -325 2973 -648 
Q 2816 -972 2473 -1159 
Q 2131 -1347 1631 -1347 
Q 1038 -1347 672 -1080 
Q 306 -813 319 -275 
z
M 784 1719 
Q 784 1066 1043 766 
Q 1303 466 1694 466 
Q 2081 466 2343 764 
Q 2606 1063 2606 1700 
Q 2606 2309 2336 2618 
Q 2066 2928 1684 2928 
Q 1309 2928 1046 2623 
Q 784 2319 784 1719 
z
" transform="scale(0.015625)"/>
      <path id="ArialMT-6d" d="M 422 0 
L 422 3319 
L 925 3319 
L 925 2853 
Q 1081 3097 1340 3245 
Q 1600 3394 1931 3394 
Q 2300 3394 2536 3241 
Q 2772 3088 2869 2813 
Q 3263 3394 3894 3394 
Q 4388 3394 4653 3120 
Q 4919 2847 4919 2278 
L 4919 0 
L 4359 0 
L 4359 2091 
Q 4359 2428 4304 2576 
Q 4250 2725 4106 2815 
Q 3963 2906 3769 2906 
Q 3419 2906 3187 2673 
Q 2956 2441 2956 1928 
L 2956 0 
L 2394 0 
L 2394 2156 
Q 2394 2531 2256 2718 
Q 2119 2906 1806 2906 
Q 1569 2906 1367 2781 
Q 1166 2656 1075 2415 
Q 984 2175 984 1722 
L 984 0 
L 422 0 
z
" transform="scale(0.015625)"/>
     </defs>
     <use xlink:href="#ArialMT-48" transform="translate(0 0.09375)"/>
     <use xlink:href="#ArialMT-69" transform="translate(72.216797 0.09375)"/>
     <use xlink:href="#ArialMT-73" transform="translate(94.433594 0.09375)"/>
     <use xlink:href="#ArialMT-74" transform="translate(144.433594 0.09375)"/>
     <use xlink:href="#ArialMT-6f" transform="translate(172.216797 0.09375)"/>
     <use xlink:href="#ArialMT-67" transform="translate(227.832031 0.09375)"/>
     <use xlink:href="#ArialMT-72" transform="translate(283.447266 0.09375)"/>
     <use xlink:href="#ArialMT-61" transform="translate(316.748047 0.09375)"/>
     <use xlink:href="#ArialMT-6d" transform="translate(372.363281 0.09375)"/>
     <use xlink:href="#ArialMT-61" transform="translate(455.664062 0.09375)"/>
     <use xlink:href="#ArialMT-20" transform="translate(511.279297 0.09375)"/>
     <use xlink:href="#ArialMT-64" transform="translate(539.0625 0.09375)"/>
     <use xlink:href="#ArialMT-65" transform="translate(594.677734 0.09375)"/>
     <use xlink:href="#ArialMT-20" transform="translate(650.292969 0.09375)"/>
     <use xlink:href="#ArialMT-6c" transform="translate(678.076172 0.09375)"/>
     <use xlink:href="#ArialMT-6f" transform="translate(700.292969 0.09375)"/>
     <use xlink:href="#ArialMT-73" transform="translate(755.908203 0.09375)"/>
     <use xlink:href="#ArialMT-20" transform="translate(805.908203 0.09375)"/>
     <use xlink:href="#ArialMT-64" transform="translate(833.691406 0.09375)"/>
     <use xlink:href="#ArialMT-61" transform="translate(889.306641 0.09375)"/>
     <use xlink:href="#ArialMT-74" transform="translate(944.921875 0.09375)"/>
     <use xlink:href="#ArialMT-6f" transform="translate(972.705078 0.09375)"/>
     <use xlink:href="#ArialMT-73" transform="translate(1028.320312 0.09375)"/>
     <use xlink:href="#ArialMT-20" transform="translate(1078.320312 0.09375)"/>
     <use xlink:href="#ArialMT-64" transform="translate(1106.103516 0.09375)"/>
     <use xlink:href="#ArialMT-65" transform="translate(1161.71875 0.09375)"/>
     <use xlink:href="#ArialMT-20" transform="translate(1217.333984 0.09375)"/>
     <use xlink:href="#DejaVuSans-Oblique-58" transform="translate(1245.117188 0.09375)"/>
    </g>
   </g>
  </g>
  <g id="axes_2">
   <g id="patch_37">
    <path d="M 478.08 383.94 
L 851.04 383.94 
L 851.04 29.76 
L 478.08 29.76 
z
" style="fill: #eaeaf2"/>
   </g>
   <g id="matplotlib.axis_3">
    <g id="xtick_7">
     <g id="line2d_12">
      <path d="M 494.960001 383.94 
L 494.960001 29.76 
" clip-path="url(#p9090f2e0c3)" style="fill: none; stroke: #ffffff; stroke-linecap: round"/>
     </g>
     <g id="text_15">
      <!-- 0.0 -->
      <g style="fill: #262626" transform="translate(487.315001 401.313594) scale(0.11 -0.11)">
       <use xlink:href="#ArialMT-30"/>
       <use xlink:href="#ArialMT-2e" x="55.615234"/>
       <use xlink:href="#ArialMT-30" x="83.398438"/>
      </g>
     </g>
    </g>
    <g id="xtick_8">
     <g id="line2d_13">
      <path d="M 562.849592 383.94 
L 562.849592 29.76 
" clip-path="url(#p9090f2e0c3)" style="fill: none; stroke: #ffffff; stroke-linecap: round"/>
     </g>
     <g id="text_16">
      <!-- 0.2 -->
      <g style="fill: #262626" transform="translate(555.204592 401.313594) scale(0.11 -0.11)">
       <use xlink:href="#ArialMT-30"/>
       <use xlink:href="#ArialMT-2e" x="55.615234"/>
       <use xlink:href="#ArialMT-32" x="83.398438"/>
      </g>
     </g>
    </g>
    <g id="xtick_9">
     <g id="line2d_14">
      <path d="M 630.739184 383.94 
L 630.739184 29.76 
" clip-path="url(#p9090f2e0c3)" style="fill: none; stroke: #ffffff; stroke-linecap: round"/>
     </g>
     <g id="text_17">
      <!-- 0.4 -->
      <g style="fill: #262626" transform="translate(623.094184 401.313594) scale(0.11 -0.11)">
       <use xlink:href="#ArialMT-30"/>
       <use xlink:href="#ArialMT-2e" x="55.615234"/>
       <use xlink:href="#ArialMT-34" x="83.398438"/>
      </g>
     </g>
    </g>
    <g id="xtick_10">
     <g id="line2d_15">
      <path d="M 698.628775 383.94 
L 698.628775 29.76 
" clip-path="url(#p9090f2e0c3)" style="fill: none; stroke: #ffffff; stroke-linecap: round"/>
     </g>
     <g id="text_18">
      <!-- 0.6 -->
      <g style="fill: #262626" transform="translate(690.983775 401.313594) scale(0.11 -0.11)">
       <defs>
        <path id="ArialMT-36" d="M 3184 3459 
L 2625 3416 
Q 2550 3747 2413 3897 
Q 2184 4138 1850 4138 
Q 1581 4138 1378 3988 
Q 1113 3794 959 3422 
Q 806 3050 800 2363 
Q 1003 2672 1297 2822 
Q 1591 2972 1913 2972 
Q 2475 2972 2870 2558 
Q 3266 2144 3266 1488 
Q 3266 1056 3080 686 
Q 2894 316 2569 119 
Q 2244 -78 1831 -78 
Q 1128 -78 684 439 
Q 241 956 241 2144 
Q 241 3472 731 4075 
Q 1159 4600 1884 4600 
Q 2425 4600 2770 4297 
Q 3116 3994 3184 3459 
z
M 888 1484 
Q 888 1194 1011 928 
Q 1134 663 1356 523 
Q 1578 384 1822 384 
Q 2178 384 2434 671 
Q 2691 959 2691 1453 
Q 2691 1928 2437 2201 
Q 2184 2475 1800 2475 
Q 1419 2475 1153 2201 
Q 888 1928 888 1484 
z
" transform="scale(0.015625)"/>
       </defs>
       <use xlink:href="#ArialMT-30"/>
       <use xlink:href="#ArialMT-2e" x="55.615234"/>
       <use xlink:href="#ArialMT-36" x="83.398438"/>
      </g>
     </g>
    </g>
    <g id="xtick_11">
     <g id="line2d_16">
      <path d="M 766.518366 383.94 
L 766.518366 29.76 
" clip-path="url(#p9090f2e0c3)" style="fill: none; stroke: #ffffff; stroke-linecap: round"/>
     </g>
     <g id="text_19">
      <!-- 0.8 -->
      <g style="fill: #262626" transform="translate(758.873366 401.313594) scale(0.11 -0.11)">
       <defs>
        <path id="ArialMT-38" d="M 1131 2484 
Q 781 2613 612 2850 
Q 444 3088 444 3419 
Q 444 3919 803 4259 
Q 1163 4600 1759 4600 
Q 2359 4600 2725 4251 
Q 3091 3903 3091 3403 
Q 3091 3084 2923 2848 
Q 2756 2613 2416 2484 
Q 2838 2347 3058 2040 
Q 3278 1734 3278 1309 
Q 3278 722 2862 322 
Q 2447 -78 1769 -78 
Q 1091 -78 675 323 
Q 259 725 259 1325 
Q 259 1772 486 2073 
Q 713 2375 1131 2484 
z
M 1019 3438 
Q 1019 3113 1228 2906 
Q 1438 2700 1772 2700 
Q 2097 2700 2305 2904 
Q 2513 3109 2513 3406 
Q 2513 3716 2298 3927 
Q 2084 4138 1766 4138 
Q 1444 4138 1231 3931 
Q 1019 3725 1019 3438 
z
M 838 1322 
Q 838 1081 952 856 
Q 1066 631 1291 507 
Q 1516 384 1775 384 
Q 2178 384 2440 643 
Q 2703 903 2703 1303 
Q 2703 1709 2433 1975 
Q 2163 2241 1756 2241 
Q 1359 2241 1098 1978 
Q 838 1716 838 1322 
z
" transform="scale(0.015625)"/>
       </defs>
       <use xlink:href="#ArialMT-30"/>
       <use xlink:href="#ArialMT-2e" x="55.615234"/>
       <use xlink:href="#ArialMT-38" x="83.398438"/>
      </g>
     </g>
    </g>
    <g id="xtick_12">
     <g id="line2d_17">
      <path d="M 834.407957 383.94 
L 834.407957 29.76 
" clip-path="url(#p9090f2e0c3)" style="fill: none; stroke: #ffffff; stroke-linecap: round"/>
     </g>
     <g id="text_20">
      <!-- 1.0 -->
      <g style="fill: #262626" transform="translate(826.762957 401.313594) scale(0.11 -0.11)">
       <use xlink:href="#ArialMT-31"/>
       <use xlink:href="#ArialMT-2e" x="55.615234"/>
       <use xlink:href="#ArialMT-30" x="83.398438"/>
      </g>
     </g>
    </g>
    <g id="text_21">
     <!-- Valores de $Y$ -->
     <g style="fill: #262626" transform="translate(630.54 416.089219) scale(0.12 -0.12)">
      <defs>
       <path id="DejaVuSans-Oblique-59" d="M 403 4666 
L 1081 4666 
L 1953 2747 
L 3616 4666 
L 4325 4666 
L 2209 2222 
L 1778 0 
L 1147 0 
L 1575 2222 
L 403 4666 
z
" transform="scale(0.015625)"/>
      </defs>
      <use xlink:href="#ArialMT-56" transform="translate(0 0.09375)"/>
      <use xlink:href="#ArialMT-61" transform="translate(66.699219 0.09375)"/>
      <use xlink:href="#ArialMT-6c" transform="translate(122.314453 0.09375)"/>
      <use xlink:href="#ArialMT-6f" transform="translate(144.53125 0.09375)"/>
      <use xlink:href="#ArialMT-72" transform="translate(200.146484 0.09375)"/>
      <use xlink:href="#ArialMT-65" transform="translate(233.447266 0.09375)"/>
      <use xlink:href="#ArialMT-73" transform="translate(289.0625 0.09375)"/>
      <use xlink:href="#ArialMT-20" transform="translate(339.0625 0.09375)"/>
      <use xlink:href="#ArialMT-64" transform="translate(366.845703 0.09375)"/>
      <use xlink:href="#ArialMT-65" transform="translate(422.460938 0.09375)"/>
      <use xlink:href="#ArialMT-20" transform="translate(478.076172 0.09375)"/>
      <use xlink:href="#DejaVuSans-Oblique-59" transform="translate(505.859375 0.09375)"/>
     </g>
    </g>
   </g>
   <g id="matplotlib.axis_4">
    <g id="ytick_6">
     <g id="line2d_18">
      <path d="M 478.08 383.94 
L 851.04 383.94 
" clip-path="url(#p9090f2e0c3)" style="fill: none; stroke: #ffffff; stroke-linecap: round"/>
     </g>
     <g id="text_22">
      <!-- 0.0 -->
      <g style="fill: #262626" transform="translate(453.29 387.876797) scale(0.11 -0.11)">
       <use xlink:href="#ArialMT-30"/>
       <use xlink:href="#ArialMT-2e" x="55.615234"/>
       <use xlink:href="#ArialMT-30" x="83.398438"/>
      </g>
     </g>
    </g>
    <g id="ytick_7">
     <g id="line2d_19">
      <path d="M 478.08 332.891008 
L 851.04 332.891008 
" clip-path="url(#p9090f2e0c3)" style="fill: none; stroke: #ffffff; stroke-linecap: round"/>
     </g>
     <g id="text_23">
      <!-- 0.2 -->
      <g style="fill: #262626" transform="translate(453.29 336.827805) scale(0.11 -0.11)">
       <use xlink:href="#ArialMT-30"/>
       <use xlink:href="#ArialMT-2e" x="55.615234"/>
       <use xlink:href="#ArialMT-32" x="83.398438"/>
      </g>
     </g>
    </g>
    <g id="ytick_8">
     <g id="line2d_20">
      <path d="M 478.08 281.842016 
L 851.04 281.842016 
" clip-path="url(#p9090f2e0c3)" style="fill: none; stroke: #ffffff; stroke-linecap: round"/>
     </g>
     <g id="text_24">
      <!-- 0.4 -->
      <g style="fill: #262626" transform="translate(453.29 285.778813) scale(0.11 -0.11)">
       <use xlink:href="#ArialMT-30"/>
       <use xlink:href="#ArialMT-2e" x="55.615234"/>
       <use xlink:href="#ArialMT-34" x="83.398438"/>
      </g>
     </g>
    </g>
    <g id="ytick_9">
     <g id="line2d_21">
      <path d="M 478.08 230.793024 
L 851.04 230.793024 
" clip-path="url(#p9090f2e0c3)" style="fill: none; stroke: #ffffff; stroke-linecap: round"/>
     </g>
     <g id="text_25">
      <!-- 0.6 -->
      <g style="fill: #262626" transform="translate(453.29 234.729821) scale(0.11 -0.11)">
       <use xlink:href="#ArialMT-30"/>
       <use xlink:href="#ArialMT-2e" x="55.615234"/>
       <use xlink:href="#ArialMT-36" x="83.398438"/>
      </g>
     </g>
    </g>
    <g id="ytick_10">
     <g id="line2d_22">
      <path d="M 478.08 179.744032 
L 851.04 179.744032 
" clip-path="url(#p9090f2e0c3)" style="fill: none; stroke: #ffffff; stroke-linecap: round"/>
     </g>
     <g id="text_26">
      <!-- 0.8 -->
      <g style="fill: #262626" transform="translate(453.29 183.680829) scale(0.11 -0.11)">
       <use xlink:href="#ArialMT-30"/>
       <use xlink:href="#ArialMT-2e" x="55.615234"/>
       <use xlink:href="#ArialMT-38" x="83.398438"/>
      </g>
     </g>
    </g>
    <g id="ytick_11">
     <g id="line2d_23">
      <path d="M 478.08 128.69504 
L 851.04 128.69504 
" clip-path="url(#p9090f2e0c3)" style="fill: none; stroke: #ffffff; stroke-linecap: round"/>
     </g>
     <g id="text_27">
      <!-- 1.0 -->
      <g style="fill: #262626" transform="translate(453.29 132.631837) scale(0.11 -0.11)">
       <use xlink:href="#ArialMT-31"/>
       <use xlink:href="#ArialMT-2e" x="55.615234"/>
       <use xlink:href="#ArialMT-30" x="83.398438"/>
      </g>
     </g>
    </g>
    <g id="ytick_12">
     <g id="line2d_24">
      <path d="M 478.08 77.646048 
L 851.04 77.646048 
" clip-path="url(#p9090f2e0c3)" style="fill: none; stroke: #ffffff; stroke-linecap: round"/>
     </g>
     <g id="text_28">
      <!-- 1.2 -->
      <g style="fill: #262626" transform="translate(453.29 81.582845) scale(0.11 -0.11)">
       <use xlink:href="#ArialMT-31"/>
       <use xlink:href="#ArialMT-2e" x="55.615234"/>
       <use xlink:href="#ArialMT-32" x="83.398438"/>
      </g>
     </g>
    </g>
    <g id="text_29">
     <!-- Densidad -->
     <g style="fill: #262626" transform="translate(446.905 232.199063) rotate(-90) scale(0.12 -0.12)">
      <use xlink:href="#ArialMT-44"/>
      <use xlink:href="#ArialMT-65" x="72.216797"/>
      <use xlink:href="#ArialMT-6e" x="127.832031"/>
      <use xlink:href="#ArialMT-73" x="183.447266"/>
      <use xlink:href="#ArialMT-69" x="233.447266"/>
      <use xlink:href="#ArialMT-64" x="255.664062"/>
      <use xlink:href="#ArialMT-61" x="311.279297"/>
      <use xlink:href="#ArialMT-64" x="366.894531"/>
     </g>
    </g>
   </g>
   <g id="patch_38">
    <path d="M 495.032727 383.94 
L 506.334545 383.94 
L 506.334545 84.956883 
L 495.032727 84.956883 
z
" clip-path="url(#p9090f2e0c3)" style="fill: #ff0000; opacity: 0.5; stroke: #ffffff; stroke-linejoin: miter"/>
   </g>
   <g id="patch_39">
    <path d="M 506.334545 383.94 
L 517.636364 383.94 
L 517.636364 115.621818 
L 506.334545 115.621818 
z
" clip-path="url(#p9090f2e0c3)" style="fill: #ff0000; opacity: 0.5; stroke: #ffffff; stroke-linejoin: miter"/>
   </g>
   <g id="patch_40">
    <path d="M 517.636364 383.94 
L 528.938182 383.94 
L 528.938182 123.288052 
L 517.636364 123.288052 
z
" clip-path="url(#p9090f2e0c3)" style="fill: #ff0000; opacity: 0.5; stroke: #ffffff; stroke-linejoin: miter"/>
   </g>
   <g id="patch_41">
    <path d="M 528.938182 383.94 
L 540.24 383.94 
L 540.24 146.286753 
L 528.938182 146.286753 
z
" clip-path="url(#p9090f2e0c3)" style="fill: #ff0000; opacity: 0.5; stroke: #ffffff; stroke-linejoin: miter"/>
   </g>
   <g id="patch_42">
    <path d="M 540.24 383.94 
L 551.541818 383.94 
L 551.541818 176.951688 
L 540.24 176.951688 
z
" clip-path="url(#p9090f2e0c3)" style="fill: #ff0000; opacity: 0.5; stroke: #ffffff; stroke-linejoin: miter"/>
   </g>
   <g id="patch_43">
    <path d="M 551.541818 383.94 
L 562.843636 383.94 
L 562.843636 184.617922 
L 551.541818 184.617922 
z
" clip-path="url(#p9090f2e0c3)" style="fill: #ff0000; opacity: 0.5; stroke: #ffffff; stroke-linejoin: miter"/>
   </g>
   <g id="patch_44">
    <path d="M 562.843636 383.94 
L 574.145455 383.94 
L 574.145455 153.952987 
L 562.843636 153.952987 
z
" clip-path="url(#p9090f2e0c3)" style="fill: #ff0000; opacity: 0.5; stroke: #ffffff; stroke-linejoin: miter"/>
   </g>
   <g id="patch_45">
    <path d="M 574.145455 383.94 
L 585.447273 383.94 
L 585.447273 130.954286 
L 574.145455 130.954286 
z
" clip-path="url(#p9090f2e0c3)" style="fill: #ff0000; opacity: 0.5; stroke: #ffffff; stroke-linejoin: miter"/>
   </g>
   <g id="patch_46">
    <path d="M 585.447273 383.94 
L 596.749091 383.94 
L 596.749091 153.952987 
L 585.447273 153.952987 
z
" clip-path="url(#p9090f2e0c3)" style="fill: #ff0000; opacity: 0.5; stroke: #ffffff; stroke-linejoin: miter"/>
   </g>
   <g id="patch_47">
    <path d="M 596.749091 383.94 
L 608.050909 383.94 
L 608.050909 184.617922 
L 596.749091 184.617922 
z
" clip-path="url(#p9090f2e0c3)" style="fill: #ff0000; opacity: 0.5; stroke: #ffffff; stroke-linejoin: miter"/>
   </g>
   <g id="patch_48">
    <path d="M 608.050909 383.94 
L 619.352727 383.94 
L 619.352727 92.623117 
L 608.050909 92.623117 
z
" clip-path="url(#p9090f2e0c3)" style="fill: #ff0000; opacity: 0.5; stroke: #ffffff; stroke-linejoin: miter"/>
   </g>
   <g id="patch_49">
    <path d="M 619.352727 383.94 
L 630.654545 383.94 
L 630.654545 54.291948 
L 619.352727 54.291948 
z
" clip-path="url(#p9090f2e0c3)" style="fill: #ff0000; opacity: 0.5; stroke: #ffffff; stroke-linejoin: miter"/>
   </g>
   <g id="patch_50">
    <path d="M 630.654545 383.94 
L 641.956364 383.94 
L 641.956364 100.289351 
L 630.654545 100.289351 
z
" clip-path="url(#p9090f2e0c3)" style="fill: #ff0000; opacity: 0.5; stroke: #ffffff; stroke-linejoin: miter"/>
   </g>
   <g id="patch_51">
    <path d="M 641.956364 383.94 
L 653.258182 383.94 
L 653.258182 138.620519 
L 641.956364 138.620519 
z
" clip-path="url(#p9090f2e0c3)" style="fill: #ff0000; opacity: 0.5; stroke: #ffffff; stroke-linejoin: miter"/>
   </g>
   <g id="patch_52">
    <path d="M 653.258182 383.94 
L 664.56 383.94 
L 664.56 161.619221 
L 653.258182 161.619221 
z
" clip-path="url(#p9090f2e0c3)" style="fill: #ff0000; opacity: 0.5; stroke: #ffffff; stroke-linejoin: miter"/>
   </g>
   <g id="patch_53">
    <path d="M 664.56 383.94 
L 675.861818 383.94 
L 675.861818 169.285455 
L 664.56 169.285455 
z
" clip-path="url(#p9090f2e0c3)" style="fill: #ff0000; opacity: 0.5; stroke: #ffffff; stroke-linejoin: miter"/>
   </g>
   <g id="patch_54">
    <path d="M 675.861818 383.94 
L 687.163636 383.94 
L 687.163636 107.955584 
L 675.861818 107.955584 
z
" clip-path="url(#p9090f2e0c3)" style="fill: #ff0000; opacity: 0.5; stroke: #ffffff; stroke-linejoin: miter"/>
   </g>
   <g id="patch_55">
    <path d="M 687.163636 383.94 
L 698.465455 383.94 
L 698.465455 123.288052 
L 687.163636 123.288052 
z
" clip-path="url(#p9090f2e0c3)" style="fill: #ff0000; opacity: 0.5; stroke: #ffffff; stroke-linejoin: miter"/>
   </g>
   <g id="patch_56">
    <path d="M 698.465455 383.94 
L 709.767273 383.94 
L 709.767273 115.621818 
L 698.465455 115.621818 
z
" clip-path="url(#p9090f2e0c3)" style="fill: #ff0000; opacity: 0.5; stroke: #ffffff; stroke-linejoin: miter"/>
   </g>
   <g id="patch_57">
    <path d="M 709.767273 383.94 
L 721.069091 383.94 
L 721.069091 146.286753 
L 709.767273 146.286753 
z
" clip-path="url(#p9090f2e0c3)" style="fill: #ff0000; opacity: 0.5; stroke: #ffffff; stroke-linejoin: miter"/>
   </g>
   <g id="patch_58">
    <path d="M 721.069091 383.94 
L 732.370909 383.94 
L 732.370909 115.621818 
L 721.069091 115.621818 
z
" clip-path="url(#p9090f2e0c3)" style="fill: #ff0000; opacity: 0.5; stroke: #ffffff; stroke-linejoin: miter"/>
   </g>
   <g id="patch_59">
    <path d="M 732.370909 383.94 
L 743.672727 383.94 
L 743.672727 46.625714 
L 732.370909 46.625714 
z
" clip-path="url(#p9090f2e0c3)" style="fill: #ff0000; opacity: 0.5; stroke: #ffffff; stroke-linejoin: miter"/>
   </g>
   <g id="patch_60">
    <path d="M 743.672727 383.94 
L 754.974545 383.94 
L 754.974545 161.619221 
L 743.672727 161.619221 
z
" clip-path="url(#p9090f2e0c3)" style="fill: #ff0000; opacity: 0.5; stroke: #ffffff; stroke-linejoin: miter"/>
   </g>
   <g id="patch_61">
    <path d="M 754.974545 383.94 
L 766.276364 383.94 
L 766.276364 123.288052 
L 754.974545 123.288052 
z
" clip-path="url(#p9090f2e0c3)" style="fill: #ff0000; opacity: 0.5; stroke: #ffffff; stroke-linejoin: miter"/>
   </g>
   <g id="patch_62">
    <path d="M 766.276364 383.94 
L 777.578182 383.94 
L 777.578182 61.958182 
L 766.276364 61.958182 
z
" clip-path="url(#p9090f2e0c3)" style="fill: #ff0000; opacity: 0.5; stroke: #ffffff; stroke-linejoin: miter"/>
   </g>
   <g id="patch_63">
    <path d="M 777.578182 383.94 
L 788.88 383.94 
L 788.88 153.952987 
L 777.578182 153.952987 
z
" clip-path="url(#p9090f2e0c3)" style="fill: #ff0000; opacity: 0.5; stroke: #ffffff; stroke-linejoin: miter"/>
   </g>
   <g id="patch_64">
    <path d="M 788.88 383.94 
L 800.181818 383.94 
L 800.181818 138.620519 
L 788.88 138.620519 
z
" clip-path="url(#p9090f2e0c3)" style="fill: #ff0000; opacity: 0.5; stroke: #ffffff; stroke-linejoin: miter"/>
   </g>
   <g id="patch_65">
    <path d="M 800.181818 383.94 
L 811.483636 383.94 
L 811.483636 146.286753 
L 800.181818 146.286753 
z
" clip-path="url(#p9090f2e0c3)" style="fill: #ff0000; opacity: 0.5; stroke: #ffffff; stroke-linejoin: miter"/>
   </g>
   <g id="patch_66">
    <path d="M 811.483636 383.94 
L 822.785455 383.94 
L 822.785455 153.952987 
L 811.483636 153.952987 
z
" clip-path="url(#p9090f2e0c3)" style="fill: #ff0000; opacity: 0.5; stroke: #ffffff; stroke-linejoin: miter"/>
   </g>
   <g id="patch_67">
    <path d="M 822.785455 383.94 
L 834.087273 383.94 
L 834.087273 84.956883 
L 822.785455 84.956883 
z
" clip-path="url(#p9090f2e0c3)" style="fill: #ff0000; opacity: 0.5; stroke: #ffffff; stroke-linejoin: miter"/>
   </g>
   <g id="patch_68">
    <path d="M 478.08 383.94 
L 478.08 29.76 
" style="fill: none; stroke: #ffffff; stroke-width: 1.25; stroke-linejoin: miter; stroke-linecap: square"/>
   </g>
   <g id="patch_69">
    <path d="M 851.04 383.94 
L 851.04 29.76 
" style="fill: none; stroke: #ffffff; stroke-width: 1.25; stroke-linejoin: miter; stroke-linecap: square"/>
   </g>
   <g id="patch_70">
    <path d="M 478.08 383.94 
L 851.04 383.94 
" style="fill: none; stroke: #ffffff; stroke-width: 1.25; stroke-linejoin: miter; stroke-linecap: square"/>
   </g>
   <g id="patch_71">
    <path d="M 478.08 29.76 
L 851.04 29.76 
" style="fill: none; stroke: #ffffff; stroke-width: 1.25; stroke-linejoin: miter; stroke-linecap: square"/>
   </g>
   <g id="text_30">
    <!-- Histograma de los datos de $Y$ -->
    <g style="fill: #262626" transform="translate(586.14 23.76) scale(0.12 -0.12)">
     <use xlink:href="#ArialMT-48" transform="translate(0 0.09375)"/>
     <use xlink:href="#ArialMT-69" transform="translate(72.216797 0.09375)"/>
     <use xlink:href="#ArialMT-73" transform="translate(94.433594 0.09375)"/>
     <use xlink:href="#ArialMT-74" transform="translate(144.433594 0.09375)"/>
     <use xlink:href="#ArialMT-6f" transform="translate(172.216797 0.09375)"/>
     <use xlink:href="#ArialMT-67" transform="translate(227.832031 0.09375)"/>
     <use xlink:href="#ArialMT-72" transform="translate(283.447266 0.09375)"/>
     <use xlink:href="#ArialMT-61" transform="translate(316.748047 0.09375)"/>
     <use xlink:href="#ArialMT-6d" transform="translate(372.363281 0.09375)"/>
     <use xlink:href="#ArialMT-61" transform="translate(455.664062 0.09375)"/>
     <use xlink:href="#ArialMT-20" transform="translate(511.279297 0.09375)"/>
     <use xlink:href="#ArialMT-64" transform="translate(539.0625 0.09375)"/>
     <use xlink:href="#ArialMT-65" transform="translate(594.677734 0.09375)"/>
     <use xlink:href="#ArialMT-20" transform="translate(650.292969 0.09375)"/>
     <use xlink:href="#ArialMT-6c" transform="translate(678.076172 0.09375)"/>
     <use xlink:href="#ArialMT-6f" transform="translate(700.292969 0.09375)"/>
     <use xlink:href="#ArialMT-73" transform="translate(755.908203 0.09375)"/>
     <use xlink:href="#ArialMT-20" transform="translate(805.908203 0.09375)"/>
     <use xlink:href="#ArialMT-64" transform="translate(833.691406 0.09375)"/>
     <use xlink:href="#ArialMT-61" transform="translate(889.306641 0.09375)"/>
     <use xlink:href="#ArialMT-74" transform="translate(944.921875 0.09375)"/>
     <use xlink:href="#ArialMT-6f" transform="translate(972.705078 0.09375)"/>
     <use xlink:href="#ArialMT-73" transform="translate(1028.320312 0.09375)"/>
     <use xlink:href="#ArialMT-20" transform="translate(1078.320312 0.09375)"/>
     <use xlink:href="#ArialMT-64" transform="translate(1106.103516 0.09375)"/>
     <use xlink:href="#ArialMT-65" transform="translate(1161.71875 0.09375)"/>
     <use xlink:href="#ArialMT-20" transform="translate(1217.333984 0.09375)"/>
     <use xlink:href="#DejaVuSans-Oblique-59" transform="translate(1245.117188 0.09375)"/>
    </g>
   </g>
  </g>
 </g>
 <defs>
  <clipPath id="pb8318a4592">
   <rect x="52.56" y="29.76" width="372.96" height="354.18"/>
  </clipPath>
  <clipPath id="p9090f2e0c3">
   <rect x="478.08" y="29.76" width="372.96" height="354.18"/>
  </clipPath>
 </defs>
</svg>
